<?xml version="1.0" encoding="UTF-8"?>
<svg id="Layer_2" data-name="Layer 2" xmlns="http://www.w3.org/2000/svg" viewBox="0 0 347.29 59.94">
  <g id="Layer_1-2" data-name="Layer 1">
    <path d="M169.23,.06c54.73,0,109.47,0,164.2,.02,1.73,0,3.53-.03,5.19,.39,5.74,1.44,9.43,7.06,8.55,12.73-.9,5.76-5.99,10.12-11.91,9.65-12.42-.98-24.83-2.13-37.23-3.41-4.19-.43-7.87-2.41-10.7-5.57-1.3-1.45-2.66-1.87-4.53-1.86-9.23,.08-18.45,.14-27.68-.03-2.78-.05-3.83,.48-3.72,3.56,.22,5.71,.47,11.46-.99,17.1-4.2,16.32-18.16,27.25-35.33,27.27-47.88,.06-95.75,.02-143.63,.02-11.47,0-22.94,.04-34.41,0C15.64,59.83,.17,44.3,.1,22.82,.07,16.33,.28,9.84,0,3.37-.11,.43,.87,0,3.53,0,58.76,.08,113.99,.06,169.23,.06Z"/>
  </g>
</svg>